<?xml version="1.0" standalone="no"?>
<!DOCTYPE svg PUBLIC "-//W3C//DTD SVG 20010904//EN"
 "http://www.w3.org/TR/2001/REC-SVG-20010904/DTD/svg10.dtd">
<svg version="1.0" xmlns="http://www.w3.org/2000/svg"
 width="1568.000000pt" height="369.000000pt" viewBox="0 0 1568.000000 369.000000"
 preserveAspectRatio="xMidYMid meet">

<g transform="translate(0.000000,369.000000) scale(0.100000,-0.100000)"
fill="#000000" stroke="none">
<path d="M12758 3626 c-102 -29 -154 -69 -132 -103 14 -22 69 -49 117 -57 35
-7 37 -5 37 19 0 16 15 42 42 71 34 37 40 49 31 62 -13 22 -37 24 -95 8z m4
-69 c-12 -13 -22 -33 -22 -45 0 -12 -3 -22 -6 -22 -13 0 -74 42 -74 51 0 5 1
9 3 9 1 0 27 9 57 19 30 11 57 18 59 15 2 -2 -5 -14 -17 -27z"/>
<path d="M12890 3583 c0 -3 8 -15 17 -26 17 -18 17 -20 -10 -43 -15 -12 -43
-26 -62 -30 -63 -11 -37 -24 45 -21 53 1 80 -2 80 -9 0 -7 48 -15 125 -22 135
-13 184 -28 228 -69 21 -21 27 -36 27 -70 0 -24 5 -43 10 -43 6 0 10 9 10 19
0 72 136 112 260 75 116 -34 152 -120 91 -215 -32 -52 -89 -91 -132 -93 -36
-1 -37 -13 -4 -28 64 -29 168 45 200 142 21 62 15 109 -19 160 -37 57 -101 83
-211 88 -80 3 -95 1 -137 -20 l-46 -24 -15 32 c-27 55 -144 93 -297 94 -44 0
-45 1 -45 32 0 27 -6 36 -40 55 -39 22 -75 30 -75 16z m75 -62 c3 -6 -4 -15
-15 -21 -19 -10 -20 -10 -8 9 15 24 15 24 23 12z"/>
<path d="M12530 3456 c-42 -16 -102 -50 -148 -85 -28 -20 -37 -23 -50 -13 -56
40 -146 35 -228 -13 -117 -69 -133 -217 -28 -261 37 -16 39 -20 24 -59 -8 -20
-16 -25 -39 -23 -16 1 -36 -4 -45 -11 -23 -20 -92 -169 -111 -239 -19 -74 -19
-112 0 -182 20 -75 67 -120 128 -120 66 0 138 26 184 65 48 41 50 41 71 15 10
-10 39 -28 66 -38 l50 -19 -27 -18 c-15 -10 -47 -20 -71 -22 -43 -5 -45 -4
-48 23 -2 21 -8 29 -23 29 -15 0 -20 -7 -22 -31 0 -18 -6 -41 -12 -52 -6 -12
-11 -25 -11 -31 0 -16 26 -13 40 5 21 25 62 14 71 -20 15 -56 34 -66 124 -66
92 0 113 10 130 61 9 25 19 35 45 42 19 5 43 15 54 23 19 13 14 14 -50 14 -39
0 -92 7 -118 16 -39 13 -47 20 -44 38 2 13 11 22 26 24 12 2 29 14 38 27 l15
23 87 -40 c103 -48 197 -61 249 -34 17 8 57 17 88 18 44 2 62 8 80 26 26 26
50 84 60 145 l6 37 67 0 c119 1 381 28 412 43 25 13 29 13 35 -1 3 -8 4 -16 3
-17 -2 -1 -24 -12 -50 -24 -91 -43 -283 -180 -370 -263 -179 -172 -263 -290
-275 -387 -5 -43 -11 -55 -42 -77 -62 -46 -121 -107 -121 -126 0 -10 -16 -26
-37 -37 -65 -33 -153 -136 -153 -178 0 -19 -18 -32 -101 -74 l-101 -50 5 133
c2 73 7 144 11 158 3 14 11 52 17 85 6 33 17 90 25 126 l15 67 42 5 c23 2 56
11 72 18 28 12 24 13 -70 20 -105 7 -175 21 -229 43 -75 31 -145 122 -161 209
-8 42 -23 56 -36 36 -24 -35 18 -147 77 -209 l34 -35 -48 -41 c-26 -22 -73
-60 -104 -83 -32 -24 -58 -47 -58 -52 0 -24 -26 1 -108 105 -101 128 -149 161
-235 161 -42 0 -51 -4 -84 -39 -81 -86 -100 -167 -69 -297 l13 -57 -36 -6
c-55 -9 -86 -7 -99 6 -9 9 -8 14 3 22 18 13 32 177 21 247 l-6 44 -92 -4 -91
-3 5 233 c3 129 2 286 -1 351 l-6 116 -38 37 c-39 38 -137 87 -196 99 -19 3
-41 15 -49 27 -8 11 -20 18 -29 15 -23 -9 -284 -39 -289 -33 -3 3 -8 31 -11
62 -6 54 -25 82 -42 59 -3 -5 -10 -10 -16 -10 -109 -16 -267 -63 -273 -81 -5
-18 32 -16 119 6 42 11 96 22 121 26 l46 7 3 -39 4 -40 -51 -11 c-28 -7 -59
-10 -68 -6 -19 7 -20 -9 -6 -206 6 -77 7 -271 4 -451 l-7 -316 -66 28 c-68 29
-121 37 -121 18 0 -5 21 -19 48 -30 73 -31 94 -42 134 -67 20 -13 41 -21 46
-18 15 9 14 644 -2 831 -7 88 -12 161 -11 162 1 2 44 -11 95 -28 92 -30 210
-84 260 -119 14 -10 35 -21 48 -24 18 -6 22 -4 22 13 0 36 -151 122 -291 165
l-74 22 100 8 c55 4 120 11 145 16 25 5 65 9 90 10 53 0 178 -40 235 -75 22
-14 53 -31 69 -37 l29 -13 -9 -285 c-10 -303 -9 -465 3 -1475 5 -352 6 -714 3
-805 l-5 -165 -95 -38 c-52 -21 -101 -44 -110 -52 -14 -12 -17 -12 -28 6 -7
11 -12 46 -12 77 6 190 -23 2543 -31 2575 -29 114 -31 24 -24 -1235 4 -700 11
-1283 16 -1296 11 -28 12 -102 2 -102 -5 0 -46 20 -93 45 -130 69 -178 91
-260 114 -48 13 -78 17 -84 11 -12 -12 -12 -13 59 -34 33 -10 114 -49 180 -86
195 -111 238 -121 348 -85 40 13 98 35 130 49 l57 26 0 90 c0 88 0 90 26 96
31 8 283 -3 369 -15 260 -38 218 -39 555 8 161 22 207 33 264 65 48 25 68 47
98 104 l23 44 263 -7 c301 -8 291 -11 292 79 0 45 1 48 23 42 71 -20 217 -28
471 -24 l281 4 70 36 c39 20 83 50 99 67 17 17 33 31 37 31 3 0 33 -16 65 -35
134 -81 299 -109 604 -102 185 4 226 8 290 27 151 45 294 126 382 217 53 55
115 178 123 248 18 140 -66 279 -210 349 -138 67 -376 80 -569 31 -112 -28
-228 -73 -375 -144 -47 -23 -90 -41 -97 -41 -7 0 -14 27 -18 67 -8 75 -33 193
-77 355 -16 59 -29 110 -29 114 0 3 10 4 23 1 12 -3 274 -7 582 -8 405 -2 568
1 588 9 16 7 71 12 123 12 56 0 94 4 94 10 0 10 -355 15 -1078 15 l-343 0 -58
155 c-75 198 -141 347 -180 403 -16 24 -55 67 -85 95 -31 28 -56 57 -56 64 0
23 -57 106 -82 119 -46 25 -53 38 -39 75 7 19 15 59 18 90 5 47 3 58 -16 75
-11 11 -21 24 -21 29 0 6 -7 10 -15 10 -8 0 -15 -8 -15 -19 0 -16 -13 -19
-147 -25 -151 -7 -308 -21 -353 -32 -21 -4 -28 0 -45 32 -28 53 -70 94 -95 94
-12 0 -28 7 -36 15 -14 14 -29 17 -104 20 -14 1 -32 5 -39 9 -7 4 -27 5 -44 2
-18 -3 -88 -10 -157 -16 -69 -6 -192 -20 -273 -31 -82 -11 -150 -19 -152 -17
-11 10 97 152 174 229 93 92 171 142 285 180 53 17 65 24 50 30 -29 12 -85 9
-124 -5z m-216 -124 c3 -5 -13 -26 -35 -48 -22 -21 -63 -69 -91 -106 -27 -38
-57 -68 -65 -68 -23 0 -73 56 -73 83 0 70 108 147 206 147 29 0 55 -4 58 -8z
m596 -304 c0 -5 6 -8 13 -8 21 0 64 -51 89 -105 20 -43 23 -66 23 -165 0 -88
-4 -126 -19 -162 -19 -50 -18 -49 -130 -73 -92 -20 -142 -10 -291 61 -29 13
-57 24 -62 24 -6 0 -13 8 -15 18 -6 23 -79 62 -116 62 -45 0 -115 -41 -133
-78 -28 -55 -173 -140 -216 -126 -69 22 -99 62 -109 146 -8 69 7 140 52 250
34 80 39 88 68 92 354 55 846 91 846 64z m580 -132 c0 -3 -4 -8 -10 -11 -5 -3
-10 -1 -10 4 0 6 5 11 10 11 6 0 10 -2 10 -4z m-384 -83 c-8 -15 -15 -22 -16
-15 0 14 22 53 28 47 2 -2 -3 -16 -12 -32z m206 -23 c-3 -22 -10 -30 -24 -30
-19 0 -19 1 2 30 12 17 23 30 24 30 1 0 1 -13 -2 -30z m-202 -34 c0 -3 -4 -8
-10 -11 -5 -3 -10 -1 -10 4 0 6 5 11 10 11 6 0 10 -2 10 -4z m546 -74 c12 -9
29 -29 38 -43 16 -26 16 -26 -73 -116 -82 -83 -145 -173 -122 -173 6 0 57 48
115 106 l104 106 42 -33 c81 -65 135 -157 229 -392 84 -208 145 -401 185 -583
27 -123 69 -405 64 -430 -3 -16 -29 -26 -233 -85 -216 -63 -563 -123 -665
-115 -51 3 -57 6 -78 42 -47 78 -121 241 -152 337 -31 95 -32 99 -21 175 6 42
19 100 28 129 l16 52 100 36 c143 53 206 82 249 117 79 62 36 59 -107 -8 -49
-23 -169 -70 -265 -104 -96 -34 -185 -68 -198 -76 -12 -8 -27 -12 -33 -9 -14
9 -64 112 -84 173 -17 51 -17 53 1 74 72 80 359 255 718 438 48 24 71 50 44
50 -7 0 -43 -14 -81 -29 -64 -28 -69 -29 -118 -16 -56 15 -119 9 -119 -10 0
-7 13 -24 28 -37 l29 -24 -86 -44 c-47 -25 -126 -69 -174 -98 -78 -46 -88 -50
-82 -30 37 122 224 344 385 457 52 36 102 71 111 76 112 68 175 105 179 105 3
0 15 -8 26 -18z m-1216 -41 c0 -11 -49 -21 -55 -11 -3 5 1 11 7 13 21 9 48 8
48 -2z m45 -11 c3 -5 2 -10 -4 -10 -5 0 -13 5 -16 10 -3 6 -2 10 4 10 5 0 13
-4 16 -10z m-162 -32 c-4 -7 -6 -21 -5 -30 2 -10 -1 -18 -7 -18 -18 0 -20 16
-5 38 16 23 31 31 17 10z m135 -188 c22 -11 45 -20 50 -20 5 0 7 -11 4 -25 -4
-21 -10 -25 -42 -25 -32 0 -39 4 -42 22 -5 35 -28 34 -28 -1 0 -26 -4 -31 -25
-31 -21 0 -25 5 -25 29 0 22 8 34 33 50 17 11 32 21 33 21 0 0 19 -9 42 -20z
m896 -126 c18 -7 12 -24 -8 -24 -7 0 -21 7 -32 15 -19 14 -19 14 3 15 12 0 28
-3 37 -6z m-1677 -64 c31 -18 65 -48 83 -75 17 -24 50 -64 74 -89 24 -24 62
-70 84 -102 23 -33 64 -92 91 -131 l51 -73 -30 -15 c-39 -20 -44 -19 -91 12
-35 23 -39 28 -25 39 9 6 21 25 27 42 16 47 -17 103 -77 133 -42 20 -52 21
-91 10 -43 -11 -46 -10 -82 19 -54 42 -107 103 -131 149 -23 46 -15 81 24 99
31 16 36 15 93 -18z m-352 -185 c-5 -83 -11 -115 -20 -115 -17 0 -30 18 -44
62 -12 35 -27 55 -36 46 -2 -2 2 -27 9 -56 l14 -52 -39 0 -39 0 0 115 0 114
78 3 c42 2 79 2 81 1 2 -1 0 -54 -4 -118z m193 81 c12 -33 102 -134 153 -172
21 -16 26 -26 22 -47 -5 -27 -5 -27 -97 -27 l-91 0 -23 88 c-12 48 -22 95 -22
104 0 20 31 88 40 88 3 0 11 -15 18 -34z m672 28 c0 -3 -21 -46 -47 -95 -39
-71 -46 -90 -35 -101 10 -10 23 -7 68 15 31 15 54 24 52 20 -40 -92 -77 -154
-96 -162 -48 -22 -65 -13 -115 60 l-49 71 104 99 c96 91 118 109 118 93z m129
-41 c36 -9 67 -17 68 -18 2 -1 -4 -21 -12 -46 -15 -45 -44 -196 -54 -283 l-6
-50 -25 37 c-14 20 -40 44 -57 52 -18 9 -33 18 -33 21 0 9 42 88 77 146 52 84
32 108 -57 72 -23 -9 -42 -15 -44 -13 -2 2 7 28 20 58 18 41 28 52 40 47 10
-4 47 -14 83 -23z m-451 -193 c18 -11 35 -26 38 -34 6 -15 -19 -71 -36 -81
-19 -11 -58 4 -95 36 -40 36 -44 61 -13 83 30 21 66 20 106 -4z m-597 -20 c35
-19 20 -30 -41 -30 -53 0 -60 2 -60 20 0 17 7 20 41 20 22 0 49 -5 60 -10z
m147 -107 l72 -36 0 -119 c0 -117 0 -119 -21 -113 -26 9 -111 -3 -105 -14 3
-4 -26 -38 -64 -76 l-70 -67 0 -397 c0 -218 4 -401 8 -407 13 -21 349 -34 747
-30 209 3 404 2 434 -2 l53 -7 -34 -50 c-19 -27 -46 -56 -61 -63 -56 -27 -483
-86 -582 -80 -38 3 -142 15 -230 27 -118 17 -187 21 -266 18 l-105 -5 0 101
c1 182 -14 1240 -19 1306 l-5 64 88 -7 c71 -6 100 -14 160 -43z m332 12 c29
-19 65 -35 80 -35 17 0 54 -17 89 -40 33 -22 64 -40 69 -40 6 0 9 -8 8 -17 -1
-14 7 -18 33 -18 28 0 42 -9 92 -65 l58 -65 -34 -3 c-25 -2 -44 4 -67 21 -50
37 -88 54 -226 102 -70 24 -156 56 -192 72 -36 16 -80 36 -97 44 -18 7 -33 19
-33 26 0 6 -3 18 -6 27 -5 13 7 16 73 19 43 1 83 4 89 5 7 1 35 -14 64 -33z
m-262 8 c5 -18 -20 -16 -44 2 -18 15 -18 15 10 13 16 -2 31 -9 34 -15z m1308
-137 c19 -28 18 -36 -8 -36 -13 0 -45 -7 -72 -15 -63 -19 -105 -19 -112 0 -9
22 38 95 91 144 l47 43 20 -58 c11 -32 26 -67 34 -78z m-616 100 c33 -12 35
-15 41 -72 11 -95 10 -194 -1 -194 -5 0 -10 6 -10 13 0 8 -25 46 -55 86 -57
75 -62 86 -45 96 18 11 11 35 -10 35 -24 0 -26 13 -4 34 18 19 36 19 84 2z
m-372 -150 c151 -54 210 -77 228 -91 17 -13 11 -14 -57 -15 -49 0 -87 5 -105
15 -37 19 -65 19 -111 0 -24 -10 -70 -15 -140 -15 l-105 0 6 31 c3 17 6 67 6
110 l0 78 103 -44 c56 -24 135 -55 175 -69z m484 32 c15 -21 25 -53 28 -90 l6
-58 -28 0 c-26 0 -28 3 -28 38 0 20 -3 61 -6 90 -4 28 -4 52 -1 52 3 0 16 -15
29 -32z m771 -60 c-8 -29 -16 -54 -18 -56 -1 -1 -9 18 -17 42 -15 45 -15 45
11 55 14 5 29 10 33 10 4 1 0 -23 -9 -51z m-201 19 c29 -13 47 -15 78 -8 38 8
40 8 46 -18 3 -14 8 -32 10 -40 2 -8 -2 -23 -9 -35 -8 -12 -17 -33 -21 -48 -3
-16 -11 -28 -16 -28 -12 0 -34 40 -34 65 -1 15 -11 22 -41 30 -22 5 -44 15
-48 23 -5 7 -20 17 -34 23 l-26 10 23 24 c13 14 26 24 29 22 3 -2 23 -11 43
-20z m-252 -50 c14 -3 45 -2 70 3 34 6 51 4 75 -8 l30 -16 -78 -7 c-43 -4 -84
-12 -90 -18 -7 -7 -51 -11 -111 -11 l-101 0 35 22 c51 31 123 57 135 48 6 -4
21 -10 35 -13z m260 -57 c16 -5 -6 -8 -65 -8 -49 0 -101 4 -115 8 -16 5 6 8
65 8 50 0 101 -4 115 -8z m-1134 -45 c21 -23 72 -35 231 -55 43 -6 103 -17
133 -27 30 -9 80 -17 110 -18 30 -2 75 -8 100 -14 25 -6 77 -11 116 -11 89 0
164 -10 164 -21 0 -12 -227 -11 -450 1 -96 5 -334 10 -527 11 -194 2 -353 7
-353 11 0 5 33 42 73 82 l72 74 155 -6 c143 -5 157 -7 176 -27z m478 16 c57
-1 58 -2 43 -19 -10 -10 -17 -24 -17 -30 0 -23 19 -21 57 7 39 28 44 29 205
36 l165 7 7 -33 c5 -27 2 -37 -15 -50 -50 -38 11 -63 152 -63 75 0 126 17 135
46 5 17 9 15 35 -19 15 -21 29 -40 29 -43 0 -4 -83 -7 -184 -9 l-184 -2 -4 23
c-2 13 -8 23 -15 23 -6 0 -15 3 -19 8 -4 4 -67 7 -139 7 -144 0 -193 11 -238
53 -15 14 -53 31 -88 39 -56 14 -63 14 -78 -1 -9 -9 -23 -15 -31 -14 -164 19
-222 28 -226 34 -2 4 75 6 173 5 98 -2 205 -4 237 -5z m553 -7 c-3 -3 -12 -4
-19 -1 -8 3 -5 6 6 6 11 1 17 -2 13 -5z m293 -154 c39 -127 105 -279 149 -343
19 -27 49 -56 73 -68 37 -19 53 -21 147 -16 151 8 401 55 596 113 50 14 98 29
108 31 15 5 17 1 11 -23 -23 -102 -162 -289 -240 -323 -57 -26 -508 -39 -694
-21 -69 7 -126 13 -127 14 -1 1 -5 45 -9 98 l-7 97 34 3 c21 2 49 -5 74 -19
22 -11 66 -29 97 -39 50 -15 63 -16 100 -4 49 14 44 19 -52 40 -71 16 -192 76
-226 111 -23 24 -26 35 -25 96 1 37 -4 109 -10 158 -10 72 -18 98 -42 132 -26
36 -28 46 -22 85 l8 43 13 -30 c7 -16 27 -77 44 -135z m1826 135 c-14 -11 -21
-11 -31 -2 -10 10 -8 13 14 18 34 7 41 1 17 -16z m134 15 c0 -5 -4 -10 -10
-10 -5 0 -10 5 -10 10 0 6 5 10 10 10 6 0 10 -4 10 -10z m86 2 c9 -5 5 -20
-12 -52 -14 -25 -21 -34 -17 -20 4 14 7 37 8 53 0 29 3 31 21 19z m-2258 -9
c-10 -2 -28 -2 -40 0 -13 2 -5 4 17 4 22 1 32 -1 23 -4z m-89 -19 c2 -2 -10
-4 -27 -4 -18 0 -32 5 -32 10 0 9 47 4 59 -6z m2431 9 c0 -5 -5 -15 -10 -23
-8 -12 -10 -11 -10 8 0 12 5 22 10 22 6 0 10 -3 10 -7z m-2270 -38 c-5 -6 -7
-14 -4 -17 3 -3 1 -9 -5 -13 -7 -4 -11 7 -11 31 0 31 2 35 15 24 11 -9 12 -16
5 -25z m2315 25 c3 -5 2 -10 -4 -10 -5 0 -13 5 -16 10 -3 6 -2 10 4 10 5 0 13
-4 16 -10z m-511 -15 c-4 -8 -10 -12 -15 -9 -14 8 -10 24 6 24 9 0 12 -6 9
-15z m-2001 -15 c3 -11 1 -20 -4 -20 -5 0 -9 9 -9 20 0 11 2 20 4 20 2 0 6 -9
9 -20z m2225 -29 c-18 -22 -43 -58 -56 -80 l-23 -41 113 -1 c62 0 139 -4 171
-8 l58 -7 45 62 c61 86 75 91 31 10 -20 -36 -37 -69 -37 -71 0 -2 17 -7 38
-10 51 -9 134 -36 128 -42 -2 -3 -20 0 -39 6 -19 7 -58 16 -86 20 l-52 8 -85
-125 c-47 -68 -84 -125 -82 -127 2 -1 26 -8 53 -15 77 -20 205 -70 205 -81 0
-13 3 -13 -130 31 -66 22 -128 40 -137 40 -17 -1 -133 -149 -133 -171 0 -6 -4
-7 -10 -4 -12 7 27 89 58 124 41 45 45 60 20 66 -81 18 -181 36 -233 41 l-60
6 -63 -111 c-56 -98 -82 -135 -82 -116 0 9 70 146 97 188 13 21 23 40 21 42
-4 3 -227 25 -256 25 -17 0 -30 -17 -61 -77 -46 -90 -55 -78 -11 15 l29 62
-57 2 -57 1 61 6 62 6 46 69 46 69 -57 -6 c-57 -6 -58 -6 -23 8 19 7 47 14 62
14 16 1 39 13 54 29 15 15 22 19 14 9 -7 -9 -11 -20 -8 -22 2 -3 40 -1 84 4
43 5 113 13 154 16 75 7 75 7 102 48 35 56 97 127 110 127 5 0 -5 -18 -24 -39z
m-2088 4 c0 -8 -4 -15 -9 -15 -13 0 -22 16 -14 24 11 11 23 6 23 -9z m-52 -22
c-10 -2 -26 -2 -35 0 -10 3 -2 5 17 5 19 0 27 -2 18 -5z m2594 -55 c-10 -22
-11 -21 -11 12 -1 26 2 31 11 22 8 -8 8 -17 0 -34z m-3664 -21 c160 0 304 2
320 2 15 1 147 -1 295 -5 l267 -7 0 -81 c-1 -190 -34 -365 -102 -546 l-25 -65
-184 -5 c-173 -5 -928 -3 -995 2 l-31 3 -7 175 c-3 96 -9 258 -13 359 l-6 184
94 -9 c52 -5 226 -8 387 -7z m3702 -2 c0 -8 -4 -15 -10 -15 -5 0 -7 7 -4 15 4
8 8 15 10 15 2 0 4 -7 4 -15z m-2410 -365 l0 -360 -242 6 c-134 4 -244 8 -245
9 -2 1 13 47 32 103 64 185 77 259 79 439 l1 163 188 0 187 0 0 -360z m1260
356 c0 -3 -4 -8 -10 -11 -5 -3 -10 -1 -10 4 0 6 5 11 10 11 6 0 10 -2 10 -4z
m-1200 -351 c10 -12 10 -15 -4 -15 -9 0 -16 7 -16 15 0 8 2 15 4 15 2 0 9 -7
16 -15z m2120 -145 c-24 -16 -31 -11 -19 11 8 16 14 18 22 10 9 -9 8 -14 -3
-21z m-1018 -5 c-5 -30 -19 -31 -52 -4 l-25 21 27 -6 c15 -3 30 -2 33 4 12 19
22 10 17 -15z m896 -54 c-15 -5 -19 4 -11 24 6 18 7 18 13 -1 4 -10 3 -21 -2
-23z m-552 -13 c-1 -15 7 -24 24 -29 19 -5 14 -7 -22 -8 -53 -1 -53 -2 -36 34
14 31 35 33 34 3z m-146 -12 c0 -3 -4 -8 -10 -11 -5 -3 -10 -1 -10 4 0 6 5 11
10 11 6 0 10 -2 10 -4z m260 -16 c0 -11 -4 -20 -9 -20 -5 0 -7 9 -4 20 3 11 7
20 9 20 2 0 4 -9 4 -20z"/>
<path d="M12880 2983 c0 -10 9 -47 20 -81 28 -90 26 -183 -5 -249 -24 -53 -21
-62 16 -43 50 27 70 138 45 251 -16 75 -47 139 -66 139 -5 0 -10 -8 -10 -17z"/>
<path d="M12758 2945 c-2 -3 -18 -7 -35 -9 -17 -2 -44 -12 -59 -23 -16 -10
-41 -24 -56 -31 -40 -17 -35 -38 11 -46 45 -7 98 9 161 49 40 25 41 27 24 46
-17 18 -35 24 -46 14z"/>
<path d="M12135 2880 c-11 -4 -30 -10 -42 -15 -13 -4 -23 -11 -23 -16 0 -16
133 -50 170 -43 l35 6 -24 17 c-64 43 -97 58 -116 51z"/>
<path d="M12696 2789 c-14 -17 -26 -36 -26 -43 0 -23 32 -56 55 -56 25 0 75
51 75 76 0 60 -62 73 -104 23z"/>
<path d="M12030 2754 c-26 -67 -1 -210 38 -222 11 -3 12 0 3 16 -6 11 -11 68
-11 126 0 106 -10 133 -30 80z"/>
<path d="M12121 2751 c-17 -31 -13 -45 18 -75 35 -34 69 -32 90 6 14 25 14 29
-5 55 -27 36 -87 45 -103 14z"/>
<path d="M12816 2721 c-10 -11 -15 -25 -11 -32 6 -8 13 -5 26 12 31 40 18 56
-15 20z"/>
<path d="M12100 2644 c0 -11 34 -33 49 -34 11 0 10 5 -4 20 -17 19 -45 27 -45
14z"/>
<path d="M14865 1224 c-11 -3 -43 -42 -72 -87 -62 -98 -70 -117 -52 -117 21 0
251 -38 275 -45 18 -6 32 11 103 116 45 67 80 123 78 126 -7 6 -309 12 -332 7z"/>
<path d="M14631 1208 c-51 -5 -103 -13 -115 -18 -18 -6 -111 -140 -103 -146 1
-1 66 -4 144 -7 l141 -6 61 95 60 94 -47 -1 c-26 -1 -89 -6 -141 -11z"/>
<path d="M7290 3453 c-108 -6 -295 -35 -318 -50 -32 -20 -24 -32 32 -54 47
-17 86 -45 86 -59 0 -4 -37 -40 -81 -79 -56 -50 -84 -69 -89 -60 -13 20 -142
59 -157 47 -9 -7 -13 -7 -13 0 0 6 4 12 9 14 13 5 112 88 144 122 28 29 39 74
13 59 -36 -22 -186 -149 -186 -159 0 -6 -7 -17 -15 -24 -10 -8 -15 -31 -15
-66 0 -63 12 -59 -142 -40 -278 35 -327 38 -781 34 -424 -3 -459 -4 -468 -20
-6 -10 -15 -18 -21 -18 -5 0 -48 -18 -95 -40 -68 -32 -83 -43 -74 -53 8 -11 5
-19 -13 -36 l-23 -22 -8 138 c-5 76 -9 160 -9 187 -1 40 -5 51 -26 65 -14 9
-30 22 -35 29 -9 11 -58 11 -275 2 -146 -6 -279 -14 -296 -18 -20 -5 -55 -33
-102 -84 -73 -79 -108 -140 -96 -167 3 -9 7 -289 8 -623 l2 -608 -42 0 -41 0
-6 443 c-6 434 -12 531 -32 533 -5 0 -59 48 -120 106 -60 59 -113 104 -116
102 -8 -4 -105 90 -111 108 -4 10 -91 11 -419 8 -228 -3 -500 -5 -606 -5 -105
0 -189 -3 -187 -7 3 -4 24 -13 47 -20 32 -10 165 -12 584 -10 l542 3 38 -35
38 -35 -315 0 c-173 -1 -415 -6 -537 -12 -242 -12 -224 -15 -318 49 -27 17
-55 32 -62 32 -7 0 -64 -47 -127 -105 -88 -82 -113 -110 -109 -125 3 -11 0
-20 -6 -20 -6 0 -11 5 -11 12 0 6 -3 8 -7 4 -5 -4 -8 -157 -9 -339 -1 -183 -5
-411 -10 -507 l-9 -175 -306 0 -306 0 -7 245 c-4 135 -8 258 -9 275 -2 28 0
30 78 51 44 12 138 39 209 59 72 19 155 47 185 61 l56 24 -3 203 c-3 255 -10
294 -63 341 -21 20 -44 36 -49 36 -6 0 -10 6 -10 14 0 7 -27 25 -60 39 -33 15
-70 36 -83 47 -12 12 -31 23 -42 26 -42 10 -481 -49 -690 -93 -312 -65 -269
-49 -347 -133 -38 -41 -75 -87 -83 -102 -9 -20 -14 -70 -14 -170 -1 -135 -16
-441 -27 -554 l-5 -51 -111 -6 c-61 -4 -112 -8 -113 -9 -1 -2 1 -56 5 -121 9
-132 19 -153 79 -159 22 -2 28 -6 22 -16 -6 -10 -65 -16 -237 -22 -126 -5
-231 -9 -233 -9 -3 -1 0 -6 6 -12 8 -8 85 -13 223 -17 116 -3 213 -8 215 -12
7 -12 -71 -242 -126 -373 -85 -200 -80 -300 19 -403 84 -87 198 -182 246 -205
l47 -22 -3 -86 -2 -86 49 -73 c53 -79 91 -116 112 -108 15 6 139 -9 221 -26
72 -16 87 -1 42 44 -18 18 -59 63 -92 101 -53 61 -57 70 -46 90 9 16 13 156
15 527 1 278 5 708 9 955 6 389 4 470 -11 595 -9 80 -20 148 -23 151 -4 3 -60
18 -124 34 l-117 29 40 46 c22 25 54 64 72 87 30 40 62 58 51 30 -3 -10 12
-17 53 -26 77 -17 163 -43 163 -51 0 -3 -22 -32 -50 -65 -27 -33 -50 -66 -50
-72 0 -26 29 -12 66 32 22 24 50 58 64 74 23 26 39 31 215 64 105 20 226 41
270 48 44 6 125 17 180 24 157 22 173 21 233 -22 l51 -38 1 -241 0 -240 -57
-19 c-32 -10 -116 -35 -188 -55 -71 -21 -163 -51 -203 -66 l-74 -29 3 -215 c2
-118 2 -401 0 -627 -3 -323 -1 -416 9 -428 16 -19 40 -3 40 26 0 11 3 19 8 19
28 0 266 31 274 36 13 9 63 -6 52 -15 -5 -5 -93 -28 -196 -51 -139 -32 -188
-47 -188 -58 0 -22 103 -11 270 28 219 51 242 59 238 78 -2 9 -17 19 -35 23
-17 3 -49 15 -71 27 -33 17 -47 19 -80 11 -23 -5 -88 -15 -144 -23 -57 -8
-112 -18 -122 -22 -17 -7 -18 4 -11 292 4 164 10 302 14 305 3 3 78 2 166 -2
88 -4 222 -8 297 -8 l136 -1 -2 -417 -2 -417 -47 -34 -47 -34 0 125 c0 132 -4
157 -25 157 -16 0 -28 -153 -24 -317 l2 -118 -63 -93 c-35 -52 -71 -97 -80
-102 -15 -8 -68 -16 -310 -45 -128 -16 -169 -22 -325 -50 -109 -19 -125 -24
-125 -36 0 -11 43 -10 120 1 68 10 362 46 533 65 71 8 136 19 145 24 10 5 24
22 31 38 17 36 18 37 73 121 44 64 48 76 48 130 l0 60 50 36 50 36 0 -85 c0
-54 -4 -85 -11 -85 -23 0 -102 -64 -114 -93 -23 -54 6 -87 89 -102 35 -7 36
-9 36 -50 0 -63 14 -92 57 -114 21 -11 61 -39 90 -64 64 -55 100 -61 321 -52
86 4 211 8 277 8 103 2 120 4 123 19 7 35 -31 41 -207 29 -91 -6 -226 -13
-300 -14 l-135 -2 -3 385 c-2 212 -5 745 -7 1185 -2 440 -7 810 -11 823 -4 12
-11 22 -15 22 -13 0 -23 -1069 -16 -1728 4 -347 4 -632 0 -632 -4 0 -22 11
-40 25 -18 14 -44 29 -57 34 l-24 9 -7 519 c-6 498 1 864 24 1259 10 170 5
334 -16 541 l-7 63 73 -25 c40 -14 85 -23 99 -20 17 2 59 39 118 99 l91 96
479 1 c263 0 502 4 532 8 87 13 145 -3 194 -52 69 -69 178 -157 187 -152 5 3
9 -523 8 -1214 l-1 -1219 -71 -6 c-39 -3 -105 -6 -146 -5 -41 0 -131 -5 -200
-10 -69 -6 -144 -11 -167 -11 l-41 0 1 383 c2 291 -1 401 -12 464 -12 67 -12
85 -2 97 7 9 10 23 7 32 -6 15 -24 16 -182 11 -105 -3 -181 -10 -187 -16 -7
-7 -14 -133 -20 -353 -4 -189 -10 -389 -12 -445 -3 -82 -1 -106 11 -118 9 -8
19 -13 23 -10 4 2 12 105 16 227 11 283 11 318 2 518 l-8 165 93 -4 c51 -1 95
-5 98 -8 3 -2 5 -185 6 -406 0 -361 2 -405 17 -432 25 -42 86 -118 105 -129
16 -9 599 -9 614 0 4 3 30 5 58 6 41 0 50 3 56 21 3 11 3 101 -1 199 l-7 178
27 10 c40 15 45 13 45 -25 0 -56 105 -158 126 -123 4 5 -13 30 -37 54 l-44 45
5 362 c9 633 -1 1868 -15 1986 l-8 65 29 -21 c16 -12 40 -23 54 -24 l25 -4 6
-265 c3 -146 1 -337 -3 -425 -13 -253 -10 -1742 3 -1767 11 -20 14 -21 288
-12 152 4 377 9 501 10 227 2 372 8 400 17 61 21 58 27 62 -118 1 -74 7 -137
11 -142 5 -4 50 -11 100 -14 292 -21 516 -54 534 -78 10 -14 14 -13 38 9 15
14 38 44 52 68 15 26 29 39 33 33 4 -8 12 -6 23 7 11 12 17 40 19 89 l3 71 64
-39 c35 -21 101 -53 145 -70 67 -26 95 -31 171 -32 104 -1 163 22 190 73 33
64 14 123 -62 190 -81 71 -260 143 -468 187 l-40 9 -6 119 c-8 161 -11 771 -3
826 l6 44 69 -3 69 -4 0 -42 c0 -67 20 -206 34 -240 8 -17 22 -40 33 -51 17
-17 21 -40 26 -145 6 -130 18 -185 40 -177 9 3 12 113 12 498 0 272 -3 509 -7
527 l-8 33 93 -3 92 -3 0 -315 c-1 -173 -3 -421 -5 -550 -5 -212 3 -440 16
-528 4 -26 12 -37 38 -47 18 -8 57 -34 87 -58 96 -78 183 -137 200 -137 9 0
19 7 23 15 4 12 29 15 135 15 153 0 387 15 560 36 121 14 161 25 161 44 0 6 5
10 10 10 6 0 10 -21 10 -47 0 -25 3 -44 6 -40 4 3 26 -17 50 -46 24 -29 77
-83 119 -121 l75 -69 113 -2 c61 -1 204 -5 317 -10 146 -5 239 -4 324 4 135
14 146 17 146 39 0 13 -13 14 -97 8 -54 -4 -129 -12 -168 -18 -44 -6 -116 -8
-195 -3 -69 4 -190 9 -270 11 l-144 4 -113 112 -113 113 -2 1086 -3 1086 40
23 c80 46 245 181 245 201 0 26 -22 24 -57 -5 -58 -48 -166 -126 -176 -126 -6
0 -7 17 -4 43 3 23 2 73 -3 110 l-8 68 -105 102 c-57 56 -134 128 -170 160
l-65 57 -264 -2 c-144 -1 -288 -3 -318 -5z m607 -72 l33 -39 -58 -6 c-31 -3
-109 -8 -172 -11 -241 -11 -505 -36 -542 -50 -11 -4 -18 2 -22 20 -4 16 -24
37 -52 55 -43 27 -45 29 -23 34 75 15 142 19 414 26 165 3 320 7 345 8 41 1
48 -2 77 -37z m-2917 -56 c31 -18 35 -17 -180 -22 -96 -2 -188 -5 -205 -5 -16
-1 -50 5 -75 13 -43 13 -36 14 145 19 105 3 213 6 240 7 28 2 61 -4 75 -12z
m-465 -55 c15 -1 -4 -24 -74 -91 l-93 -90 -39 27 c-22 15 -39 28 -39 30 0 2
32 40 70 83 l70 80 43 -19 c23 -11 51 -20 62 -20z m3509 -6 c22 -21 67 -61 99
-91 54 -52 57 -58 57 -101 0 -26 4 -63 10 -81 15 -52 2 -111 -26 -122 -23 -8
-24 -13 -24 -92 l0 -84 -62 -6 c-35 -4 -121 -9 -193 -12 -171 -7 -310 -24
-332 -40 -15 -11 -17 -25 -14 -87 2 -40 4 -113 5 -162 l1 -89 110 8 c61 4 166
11 235 14 116 6 125 7 125 26 0 18 -6 20 -65 17 -77 -3 -293 -21 -332 -27 -27
-4 -28 -3 -28 41 0 29 4 43 11 39 8 -6 154 4 307 20 40 4 47 2 89 -38 l46 -43
0 -295 c0 -162 3 -301 8 -310 6 -13 -6 -17 -79 -27 -163 -22 -347 -51 -377
-60 -35 -10 -34 -4 -37 -210 -1 -114 1 -145 12 -152 8 -5 19 -5 25 0 9 7 186
21 438 34 l97 5 0 -53 c0 -51 -1 -54 -29 -59 -16 -3 -147 -11 -292 -17 -145
-7 -276 -15 -291 -20 l-27 -9 0 228 c1 126 -2 253 -6 283 -9 68 -17 65 205 78
91 5 172 11 180 14 8 3 33 10 55 15 l40 10 -2 193 -3 193 -155 3 c-95 1 -187
-3 -240 -11 l-85 -14 0 53 c0 79 -29 413 -40 464 -13 60 -6 -166 11 -377 l13
-152 75 7 c104 10 387 9 398 -1 4 -5 8 -83 8 -173 0 -90 0 -164 0 -164 0 -5
-194 -34 -275 -41 -63 -5 -135 -12 -159 -15 l-44 -6 7 -182 c3 -99 2 -235 -2
-301 -5 -79 -4 -122 2 -127 6 -4 14 -2 18 5 5 8 73 14 220 19 117 3 236 9 263
12 28 3 74 8 103 10 l52 5 0 -205 c0 -203 0 -206 -25 -238 -21 -28 -34 -34
-97 -44 -107 -18 -336 -41 -560 -57 -108 -7 -201 -16 -207 -19 -5 -3 -47 21
-93 54 -46 34 -108 78 -139 100 l-56 39 -9 113 c-5 62 -9 375 -9 695 0 460 3
583 13 583 6 0 12 6 12 13 0 6 30 38 66 71 l66 59 -6 221 c-4 144 -10 234 -19
258 -7 20 -34 59 -59 86 -32 34 -45 56 -42 69 3 10 1 37 -4 60 l-10 42 93 74
c51 41 97 71 102 67 4 -5 31 -4 58 1 28 5 196 15 375 24 179 9 330 17 335 19
34 14 70 4 109 -30z m-2992 -17 c4 -7 8 -87 8 -179 l0 -168 -34 -22 c-32 -21
-34 -26 -41 -100 -8 -96 -3 -444 6 -460 6 -9 12 -8 24 2 13 11 18 11 31 -1 12
-12 15 -94 21 -494 3 -264 9 -491 13 -505 3 -14 14 -27 24 -28 16 -3 17 14 10
274 l-7 277 84 -6 c46 -4 171 -7 278 -7 l194 0 -7 -222 c-3 -122 -9 -224 -12
-227 -2 -3 -118 -8 -257 -12 -139 -4 -253 -7 -254 -8 -2 0 -3 -5 -3 -11 0 -6
93 -10 260 -10 246 0 260 -1 260 -18 0 -17 -12 -20 -112 -25 -62 -4 -180 -7
-263 -7 -147 0 -203 -10 -160 -27 11 -4 136 -8 277 -8 l258 0 0 -28 c0 -16 -4
-26 -8 -23 -4 2 -100 -2 -212 -10 -148 -10 -231 -11 -299 -5 -52 6 -98 8 -101
6 -4 -3 -13 39 -20 92 -10 71 -11 147 -4 297 9 207 8 397 -4 571 -5 70 -10
-43 -16 -382 -7 -435 -5 -528 10 -600 5 -26 24 -31 24 -7 0 13 9 14 68 7 81
-10 416 -6 501 5 l61 9 0 -272 0 -271 -72 7 c-40 4 -77 4 -83 0 -5 -3 -152 -9
-325 -12 -173 -3 -406 -12 -517 -19 -111 -8 -205 -12 -208 -9 -7 8 -11 1387
-5 1839 3 251 0 394 -9 487 l-13 132 87 95 c102 111 78 105 365 99 122 -3 177
-7 182 -16z m-3157 -53 c-44 -6 -134 -19 -200 -28 -125 -18 -309 -54 -407 -80
-54 -14 -61 -13 -114 5 -32 11 -79 23 -106 26 -44 5 -78 23 -46 23 7 0 63 10
123 20 196 36 521 79 690 92 27 2 56 -5 90 -21 l50 -25 -80 -12z m4983 -60
c51 -16 62 -23 62 -41 0 -12 4 -33 10 -47 5 -14 7 -26 4 -26 -14 0 -54 34 -54
46 0 9 -12 14 -34 14 -18 0 -47 3 -64 6 -26 5 -31 11 -34 46 -4 47 -2 51 26
34 11 -7 49 -21 84 -32z m-848 -39 c264 -1 380 -9 592 -40 54 -8 124 -15 155
-15 l58 -1 -30 -25 c-69 -58 -44 -56 -371 -34 -164 11 -305 22 -312 25 -21 8
-885 7 -904 0 -12 -5 -18 -2 -18 7 0 7 30 26 68 42 37 16 74 36 82 44 13 12
44 13 210 6 107 -5 319 -9 470 -9z m-3340 -63 c0 -4 -38 -45 -85 -92 l-86 -86
-59 19 -60 20 98 101 97 102 48 -29 c26 -16 47 -32 47 -35z m4273 -80 l77 -78
-27 -25 c-73 -65 -61 -64 -138 -9 -64 47 -110 69 -121 58 -3 -3 37 -40 87 -82
83 -69 129 -93 129 -66 0 10 70 79 80 80 3 0 7 -91 9 -202 1 -112 7 -208 12
-214 5 -6 -8 -26 -36 -54 l-45 -44 0 85 c0 138 -26 309 -49 323 -4 3 -5 -97
-3 -221 l5 -226 -64 6 c-35 4 -176 8 -312 9 l-249 3 -3 -845 c-3 -948 -9
-1133 -34 -1126 -62 19 -394 56 -500 56 l-87 0 -2 491 c-2 270 2 585 8 702 11
210 8 300 -21 590 -8 80 -8 111 1 122 14 17 -3 29 -45 31 -45 1 -503 34 -561
40 l-51 5 2 231 3 231 80 80 80 80 454 -12 c249 -6 505 -16 568 -21 63 -5 185
-14 270 -20 85 -7 174 -15 198 -20 42 -7 44 -7 120 56 42 34 79 63 82 63 3 1
40 -34 83 -77z m-6035 -68 l112 -36 -5 -977 c-3 -537 -9 -1028 -13 -1091 l-7
-115 -55 3 c-30 2 -71 7 -90 11 l-35 7 -12 189 c-30 492 -44 2045 -18 2045 6
0 61 -16 123 -36z m7229 -356 c-4 -62 -7 -236 -7 -385 0 -261 -1 -273 -19
-273 -18 0 -19 13 -23 228 -5 257 -13 290 -76 339 -36 27 -40 28 -162 27 -69
0 -155 -7 -191 -15 l-66 -15 -11 68 c-20 115 -41 103 201 117 116 7 219 14
227 16 8 1 42 3 74 4 l59 1 -6 -112z m-2864 -233 c92 -8 207 -15 255 -15 l89
0 13 -200 c7 -111 9 -204 5 -208 -4 -4 -128 -7 -276 -7 l-269 0 0 118 c0 65
-5 161 -11 213 -12 98 -8 127 13 119 7 -3 88 -12 181 -20z m1124 -35 c11 0 12
-42 6 -277 -4 -153 -6 -558 -4 -899 l3 -622 -38 -51 c-21 -28 -39 -49 -41 -47
-2 2 1 66 7 142 12 157 7 1690 -5 1738 -8 29 -7 29 25 23 18 -4 39 -7 47 -7z
m209 -19 c2 -1 -5 -169 -12 -278 l-6 -93 -74 0 -74 0 0 149 c0 81 -3 168 -6
192 l-6 44 88 -7 c49 -3 90 -7 90 -7z m78 -17 c3 -9 6 -89 6 -179 l0 -163 -31
-4 -32 -5 7 66 c3 36 6 119 6 184 0 108 1 117 19 117 10 0 22 -7 25 -16z
m-5964 -153 c0 -49 3 -103 6 -120 6 -31 6 -31 -34 -31 l-41 0 -3 55 c-4 72
-22 75 -28 5 -5 -55 -5 -55 -41 -58 l-37 -3 -7 103 c-3 57 -9 111 -11 121 -5
15 4 17 95 17 l101 0 0 -89z m5 -190 c3 -5 1 -12 -3 -15 -13 -8 -82 5 -82 15
0 12 77 11 85 0z m3525 -281 l0 -239 -45 17 -45 16 0 223 0 223 45 0 45 0 0
-240z m2437 208 c-4 -18 -7 -84 -9 -145 -1 -62 -5 -113 -9 -113 -14 0 -32 91
-37 188 l-5 102 33 0 c31 0 32 -1 27 -32z m1443 -173 c0 -181 -2 -204 -16
-198 -8 3 -13 12 -10 19 3 7 1 16 -5 19 -17 11 -349 -17 -426 -35 l-73 -17 0
98 c0 115 -19 100 165 124 66 9 143 20 170 25 28 5 71 11 96 15 l47 6 1 55 c0
72 8 94 32 94 18 0 19 -9 19 -205z m-7398 -110 c4 -159 12 -357 18 -440 13
-189 13 -235 -1 -235 -18 0 -253 215 -284 261 -26 37 -30 51 -29 108 1 55 10
91 59 216 31 82 68 192 81 245 36 144 35 142 97 138 l52 -3 7 -290z m7352
-118 l29 -24 -89 -6 c-112 -8 -303 -25 -371 -32 l-53 -6 0 29 c0 29 2 30 68
41 72 12 130 16 287 19 91 2 103 0 129 -21z m-3873 -81 l34 -14 -3 -72 -4 -71
-36 3 -37 3 -3 83 c-2 45 1 82 6 82 5 0 25 -6 43 -14z m-764 -218 c11 -188 6
-698 -6 -698 -3 1 -21 14 -39 29 l-33 29 3 343 c1 189 -1 377 -6 417 l-8 72
39 0 39 0 11 -192z m793 -142 l0 -164 -32 -11 c-24 -9 -34 -8 -40 1 -9 16 -11
322 -1 331 3 4 21 7 40 7 l33 0 0 -164z m2310 -181 c170 -43 255 -78 349 -143
70 -48 95 -92 77 -136 -20 -51 -66 -68 -166 -62 -97 5 -213 48 -310 114 l-55
37 -3 108 c-1 59 1 107 5 107 4 0 51 -11 103 -25z m-4260 -96 l0 -52 -37 6
c-59 10 -63 24 -19 63 22 19 43 34 48 34 4 0 8 -23 8 -51z m-1361 -67 l94 -17
55 -69 c36 -45 48 -66 36 -63 -11 3 -46 9 -79 12 -135 14 -132 12 -185 78 -68
84 -68 85 79 59z"/>
<path d="M7685 3219 c-44 -4 -132 -13 -195 -19 -63 -6 -134 -16 -158 -21 -23
-5 -69 -11 -102 -12 -33 -2 -63 -7 -67 -10 -11 -11 64 -8 197 9 229 29 284 33
443 33 l158 1 52 -39 c89 -66 89 -65 94 -197 2 -65 8 -125 13 -134 6 -9 7 36
4 115 -7 150 -9 155 -100 228 l-59 47 -100 4 c-55 2 -136 0 -180 -5z"/>
<path d="M7103 3086 c-32 -30 -54 -58 -50 -62 4 -4 36 20 70 54 76 76 60 83
-20 8z"/>
<path d="M7042 2970 c0 -19 2 -27 5 -17 2 9 2 25 0 35 -3 9 -5 1 -5 -18z"/>
<path d="M8065 2789 c-27 -9 -382 -27 -544 -29 -35 0 -61 -3 -58 -7 8 -8 389
-6 487 3 95 8 171 24 165 35 -7 11 -10 10 -50 -2z"/>
<path d="M7032 2255 c0 -16 2 -22 5 -12 2 9 2 23 0 30 -3 6 -5 -1 -5 -18z"/>
<path d="M7027 1705 c-4 -269 -10 -532 -13 -582 -3 -57 -2 -93 4 -93 16 0 23
291 20 745 l-3 420 -8 -490z"/>
<path d="M7010 986 c0 -4 17 -28 38 -54 21 -26 64 -79 96 -119 63 -79 94 -109
84 -82 -5 12 1 19 20 24 15 4 176 11 357 15 182 5 343 12 359 16 21 5 27 4 22
-5 -4 -6 -2 -11 4 -11 17 0 93 75 113 112 14 26 7 20 -35 -25 l-54 -59 -354
-9 c-195 -5 -378 -12 -405 -15 l-51 -6 -76 93 c-76 94 -118 138 -118 125z"/>
<path d="M4639 3191 c-16 -4 -48 -33 -83 -76 -98 -123 -55 -97 58 34 l28 33
127 -2 c150 -4 181 -2 181 8 0 9 -275 12 -311 3z"/>
<path d="M4946 3138 c-6 -23 10 -208 19 -216 3 -3 5 49 5 116 0 113 -10 153
-24 100z"/>
<path d="M4486 2778 c-22 -893 -15 -2023 13 -2051 16 -16 14 -25 -6 -31 -10
-3 25 -2 77 1 52 3 302 7 555 8 511 2 485 2 485 14 0 10 -906 7 -1010 -4 -70
-7 -76 -6 -77 11 -19 201 -23 435 -24 1292 -1 551 -3 1002 -4 1002 -2 0 -6
-109 -9 -242z"/>
<path d="M5122 2826 c-26 -25 -44 -48 -40 -52 7 -6 99 70 106 88 9 22 -24 3
-66 -36z"/>
<path d="M5259 2859 c12 -5 268 -11 568 -14 300 -3 548 -7 553 -10 4 -2 74 -9
155 -14 l147 -10 55 -46 c30 -25 60 -45 66 -45 18 0 -24 38 -89 81 l-64 41
-142 10 c-193 12 -1280 19 -1249 7z"/>
<path d="M5078 2603 c4 -147 7 -167 20 -146 15 22 93 23 287 3 316 -33 331
-34 320 -22 -5 6 -89 18 -185 26 -96 9 -207 21 -247 27 -52 8 -84 9 -115 1
-23 -6 -45 -9 -50 -6 -4 3 -8 47 -8 97 0 51 -3 109 -6 130 -13 76 -19 33 -16
-110z"/>
<path d="M6796 2648 c-3 -29 -6 -90 -6 -135 0 -81 -1 -83 -26 -89 -31 -8 -225
1 -401 18 -113 11 -147 9 -130 -9 4 -3 33 -8 65 -9 31 -2 136 -8 233 -15 97
-7 195 -9 217 -7 29 4 42 2 46 -8 3 -8 10 -14 16 -14 6 0 10 57 10 160 0 158
-11 210 -24 108z"/>
<path d="M5737 2340 c4 -30 8 -457 8 -949 l0 -893 75 -3 c63 -2 299 -36 350
-50 22 -7 49 13 33 23 -17 11 -25 1013 -12 1377 11 298 11 433 0 490 -13 70
-26 -546 -26 -1218 l0 -639 -70 7 c-38 3 -95 11 -125 17 -30 6 -89 12 -130 13
l-75 2 0 494 c0 272 4 584 9 694 7 163 6 239 -8 405 -10 113 -22 223 -27 245
-7 32 -7 29 -2 -15z"/>
<path d="M10268 3294 c-3 -3 -68 -12 -144 -20 -77 -8 -197 -23 -268 -32 l-129
-17 -4 -670 c-2 -368 -7 -673 -11 -677 -5 -5 -442 -13 -733 -13 0 0 -4 90 -9
200 -5 110 -12 228 -16 263 l-7 62 189 0 c104 1 233 5 287 9 93 9 100 11 152
50 l55 42 2 97 c1 53 1 165 -1 247 -3 137 -5 152 -25 173 -31 35 -105 87 -166
118 l-53 27 -371 4 -371 5 -87 -32 c-49 -18 -90 -35 -93 -39 -2 -5 1 -15 8
-24 10 -13 51 -18 247 -27 280 -12 452 -13 501 -1 33 8 42 4 140 -64 l104 -71
-3 -75 c-4 -107 -22 -372 -24 -374 -4 -4 -306 -24 -461 -31 -119 -6 -137 -9
-135 -23 3 -12 14 -15 39 -14 l36 2 6 -196 c10 -295 7 -722 -6 -862 -12 -121
-13 -124 -43 -148 l-32 -24 1 583 c1 553 -4 677 -28 671 -5 -2 -11 -223 -14
-510 -6 -589 -4 -754 9 -767 6 -6 5 -17 -2 -29 -8 -17 -6 -23 13 -38 24 -19
126 -24 494 -24 55 0 114 -4 130 -8 l30 -8 -2 -191 -1 -191 -46 -62 c-25 -35
-67 -86 -92 -114 -29 -32 -44 -57 -40 -67 9 -24 69 29 134 121 86 122 87 122
219 109 l60 -7 9 -56 c8 -48 12 -56 33 -59 26 -4 207 -97 289 -149 29 -18 59
-33 66 -33 8 0 24 -11 37 -25 28 -29 45 -32 51 -7 3 11 27 27 59 39 30 12 71
28 92 37 l37 16 12 -45 c14 -52 31 -54 38 -4 8 56 5 683 -4 837 -9 144 -22
190 -46 166 -9 -9 -10 -64 -2 -220 5 -115 7 -318 5 -451 l-6 -242 -31 -15
c-49 -23 -148 -66 -152 -66 -2 0 -3 188 -2 418 0 229 -3 461 -8 515 -8 77 -7
97 3 97 8 0 43 -13 79 -30 67 -30 84 -31 84 -4 0 18 -96 64 -151 71 -24 4 -39
11 -39 19 0 8 -4 14 -8 14 -4 0 -7 -250 -7 -555 1 -305 -1 -555 -3 -555 -2 0
-21 15 -43 33 -42 36 -152 94 -264 138 l-70 27 -7 74 c-4 40 -4 521 1 1068 4
547 6 1065 4 1150 -2 85 -4 205 -6 265 l-2 111 120 -41 c139 -46 260 -113 278
-153 8 -19 11 -153 9 -468 -1 -386 0 -443 14 -454 9 -8 18 -10 24 -4 11 11 18
737 8 874 l-6 95 -44 28 c-65 42 -219 117 -242 118 -49 1 24 18 126 28 56 6
123 14 147 16 67 8 169 -14 244 -52 68 -34 100 -36 75 -5 -13 16 -204 112
-224 112 -6 0 -13 -2 -16 -6z m-1198 -170 c100 -9 210 -14 245 -12 35 2 62 1
59 -1 -2 -2 -20 -14 -41 -26 -28 -17 -43 -21 -65 -14 -16 4 -188 9 -383 11
l-355 3 59 20 c33 11 63 23 67 28 12 12 222 8 414 -9z m428 -75 c34 -23 62
-46 62 -50 0 -5 -20 -19 -44 -31 l-44 -21 -66 48 c-36 27 -66 50 -66 52 0 5
75 42 86 43 6 0 39 -19 72 -41z m90 -317 l-3 -217 -40 -37 c-22 -21 -43 -38
-47 -38 -7 0 0 419 8 457 4 22 46 52 72 53 11 0 13 -41 10 -218z m130 -1303
c-3 -220 -7 -401 -10 -404 -2 -3 -18 -8 -35 -11 l-31 -6 -7 83 c-4 46 -12 90
-17 97 -8 9 -55 12 -172 12 l-161 1 50 24 c91 44 130 103 96 146 -43 55 -197
77 -393 55 l-68 -8 0 79 c0 43 3 135 7 204 l6 126 370 1 370 0 -5 -399z m-388
-48 c92 -27 90 -57 -6 -106 -108 -55 -136 -63 -253 -70 l-114 -6 7 47 c3 26 6
68 6 95 l0 48 73 4 c102 6 246 0 287 -12z m209 -229 l43 -7 -45 -32 -45 -33
-313 -1 c-173 0 -321 0 -328 0 -18 1 43 68 74 82 21 10 539 2 614 -9z m19
-432 c-28 -32 -34 -36 -39 -21 -4 9 -8 92 -10 183 l-4 167 40 29 40 29 3 -174
2 -174 -32 -39z m152 190 l0 -70 -41 0 c-33 0 -40 3 -35 16 3 9 6 40 6 70 l0
54 35 0 35 0 0 -70z m0 -181 l0 -61 -31 6 c-17 3 -51 6 -76 6 l-44 0 35 44
c20 23 36 48 36 55 0 6 17 11 40 11 l40 0 0 -61z"/>
<path d="M13488 3276 c-71 -31 -130 -126 -79 -126 11 0 23 5 26 10 3 6 11 10
17 10 6 0 3 -9 -6 -19 -34 -38 -1 -46 102 -25 31 6 29 34 -3 34 -19 0 -25 5
-25 21 0 12 -8 23 -20 26 -27 7 -25 17 5 31 42 19 98 15 113 -8 7 -11 17 -20
22 -20 18 0 10 31 -15 55 -27 28 -89 33 -137 11z"/>
<path d="M1905 3054 c-71 -13 -211 -37 -310 -54 -99 -18 -213 -40 -253 -51
-39 -10 -78 -18 -84 -16 -7 1 -34 -30 -60 -68 l-47 -71 -6 -679 c-3 -374 -10
-840 -14 -1035 -8 -343 -7 -380 9 -380 16 0 22 255 26 1154 l4 939 38 55 c27
39 48 59 74 68 43 15 141 32 688 123 93 15 94 14 88 -158 -3 -80 -2 -168 1
-196 l7 -50 8 65 c6 54 3 339 -4 348 -2 1 -3 8 -4 14 -2 19 -19 18 -161 -8z"/>
<path d="M9860 3076 c0 -3 24 -17 53 -30 28 -14 67 -34 85 -46 17 -12 32 -17
32 -11 0 16 -100 80 -137 87 -18 4 -33 4 -33 0z"/>
<path d="M9809 2735 c-2 -187 -5 -416 -5 -510 -1 -93 -4 -474 -8 -845 -3 -371
-3 -692 0 -713 5 -34 9 -38 28 -33 15 4 46 -8 97 -38 90 -52 115 -61 125 -44
12 19 25 621 13 632 -5 6 -9 89 -9 189 0 138 -3 178 -12 174 -10 -3 -13 -33
-12 -108 0 -57 1 -257 1 -444 0 -187 0 -362 1 -388 2 -47 1 -47 -21 -35 -12 7
-26 11 -31 10 -5 -2 -15 6 -23 18 -8 11 -41 34 -72 50 l-59 29 -6 123 c-9 183
-11 863 -3 1183 15 606 18 1001 9 1045 -7 33 -11 -46 -13 -295z"/>
<path d="M10045 2582 c0 -235 -3 -458 -6 -497 -6 -71 -2 -97 11 -76 4 8 20 4
51 -13 25 -14 65 -32 90 -41 67 -24 126 -51 223 -104 70 -38 72 -36 80 64 7
95 19 851 13 845 -6 -6 -26 -501 -29 -737 -2 -114 -7 -183 -13 -183 -5 0 -40
20 -78 44 -37 24 -116 63 -175 86 -59 23 -116 49 -126 56 -18 12 -19 34 -21
471 -1 252 -6 470 -11 485 -6 17 -9 -138 -9 -400z"/>
<path d="M8680 2947 c-3 -3 -45 -8 -94 -11 -68 -4 -93 -9 -110 -24 -11 -11
-56 -43 -99 -71 -43 -29 -76 -55 -73 -58 7 -7 41 14 128 80 37 28 80 51 95 52
152 12 338 23 342 20 4 -2 89 -6 189 -9 l184 -6 45 -45 c24 -25 48 -45 51 -45
4 0 5 -45 4 -100 -3 -68 0 -100 7 -100 7 0 11 34 11 98 l0 98 -57 56 -58 57
-280 7 c-154 4 -282 4 -285 1z"/>
<path d="M3020 2929 c-142 -13 -284 -37 -288 -48 -2 -6 -19 -30 -38 -53 -32
-38 -64 -89 -64 -103 0 -18 22 4 69 70 30 41 61 77 70 79 45 14 224 28 371 29
180 1 672 -12 706 -18 12 -3 46 -30 77 -62 31 -32 59 -54 63 -51 8 8 -8 30
-67 96 l-46 50 -200 2 c-111 0 -248 5 -305 10 -118 11 -226 10 -348 -1z"/>
<path d="M11050 2863 c-30 -7 -81 -17 -113 -24 -53 -10 -80 -29 -63 -46 9 -9
173 16 217 34 38 15 51 37 27 45 -7 2 -38 -2 -68 -9z"/>
<path d="M10491 2802 c-1 -18 3 -31 8 -28 15 9 176 -63 201 -89 23 -25 23 -27
24 -317 1 -161 -1 -635 -3 -1053 -3 -418 -3 -806 0 -862 2 -56 1 -105 -3 -109
-4 -3 -27 5 -51 19 -24 15 -69 36 -99 47 l-55 20 -6 348 c-6 362 -20 590 -39
607 -7 7 -9 -13 -4 -70 18 -206 25 -371 26 -617 0 -293 -1 -286 63 -307 36
-12 131 -60 172 -87 l26 -17 -6 199 c-8 212 -9 877 -5 1679 2 270 0 499 -3
510 -10 28 -92 81 -157 100 -63 18 -75 24 -83 45 -3 8 -6 0 -6 -18z"/>
<path d="M8273 2683 c9 -68 3 -1342 -9 -1748 l-6 -210 27 -30 c15 -16 45 -54
67 -83 37 -48 65 -72 83 -72 8 0 -62 85 -114 139 -40 43 -37 -83 -26 1026 7
788 2 1012 -23 1037 -5 5 -5 -22 1 -59z"/>
<path d="M4023 2060 c-2 -360 -8 -747 -14 -860 -14 -238 -5 -675 13 -697 21
-26 26 8 16 117 -6 62 -7 215 -3 375 11 406 11 1549 0 1640 -7 58 -11 -98 -12
-575z"/>
<path d="M2610 2685 c0 -11 -9 -209 -19 -440 -16 -373 -17 -456 -6 -740 7
-176 11 -392 8 -480 -3 -88 -1 -200 5 -250 6 -56 7 -122 2 -174 -5 -49 -5 -91
0 -100 8 -14 9 -14 13 -1 10 33 28 210 22 220 -3 6 -8 178 -10 383 -1 204 -8
431 -15 502 -12 136 -11 242 10 757 8 217 9 312 1 325 -10 17 -10 17 -11 -2z"/>
<path d="M1982 2639 c-13 -5 -75 -23 -138 -39 -123 -33 -169 -48 -163 -55 5
-4 267 56 323 75 37 12 49 30 19 29 -10 0 -28 -4 -41 -10z"/>
<path d="M9060 2550 c-107 -4 -224 -8 -259 -9 -47 -1 -62 -4 -54 -12 8 -8 90
-7 289 1 333 14 323 13 317 23 -2 4 -25 6 -51 5 -26 -1 -135 -5 -242 -8z"/>
<path d="M1623 2526 c-39 -13 -58 -32 -23 -22 14 4 39 11 55 15 20 4 25 9 15
12 -8 4 -29 1 -47 -5z"/>
<path d="M8697 2310 c-11 -330 -8 -1243 3 -1260 5 -8 10 -13 11 -10 6 37 7
1442 1 1460 -6 15 -11 -49 -15 -190z"/>
<path d="M1532 2122 c-13 -355 -16 -991 -6 -1079 8 -64 20 -70 101 -49 32 8
126 26 208 40 83 14 166 30 185 36 19 5 38 10 42 10 5 0 8 -56 8 -125 0 -77 4
-125 10 -125 11 0 14 160 4 234 -6 43 -9 47 -28 41 -12 -4 -109 -24 -216 -46
-107 -21 -214 -45 -236 -53 l-42 -14 -6 77 c-4 43 -6 371 -4 729 1 358 0 653
-3 656 -3 3 -10 -146 -17 -332z"/>
<path d="M3083 2417 c-49 -14 -72 -33 -28 -23 54 13 238 18 330 8 82 -8 122
-4 97 12 -20 12 -357 16 -399 3z"/>
<path d="M3026 2367 c-10 -22 11 -358 23 -370 16 -16 18 7 9 93 -5 47 -12 132
-16 190 -5 67 -11 99 -16 87z"/>
<path d="M3188 2353 l-68 -16 0 -138 c0 -121 2 -139 16 -139 9 0 18 8 20 18 4
14 19 17 101 19 67 2 104 -2 122 -12 25 -14 23 -14 -34 -15 -71 0 -215 -21
-215 -30 0 -11 180 -20 274 -13 64 4 89 10 93 21 4 8 -1 19 -10 24 -15 8 -17
28 -17 139 l0 129 -27 11 c-49 18 -183 20 -255 2z m181 -70 c-5 -21 -9 -60 -9
-88 l0 -50 -48 -4 c-26 -3 -69 -5 -97 -5 l-50 -1 -3 93 -3 92 110 0 109 0 -9
-37z m61 -8 c0 -65 -13 -156 -22 -153 -5 2 -10 47 -11 99 -2 87 0 95 16 91 12
-3 17 -14 17 -37z"/>
<path d="M3542 2180 c-3 -115 0 -190 5 -190 11 0 26 342 16 366 -14 36 -18 0
-21 -176z"/>
<path d="M12478 1965 c-62 -131 -63 -223 -1 -147 l22 27 1 -27 c0 -49 17 -78
45 -78 l25 0 -20 20 c-16 16 -20 33 -20 81 0 59 -1 61 -24 57 -27 -6 -28 -8
18 95 21 47 23 57 10 57 -9 0 -31 -33 -56 -85z"/>
<path d="M3167 1973 c-26 -2 -45 -8 -42 -14 8 -11 395 -12 395 0 0 17 -206 25
-353 14z"/>
<path d="M15580 1860 c0 -5 15 -10 33 -10 24 0 28 3 17 10 -20 13 -50 13 -50
0z"/>
<path d="M45 1840 c-4 -6 8 -10 30 -10 22 0 34 4 30 10 -3 6 -17 10 -30 10
-13 0 -27 -4 -30 -10z"/>
<path d="M10065 1591 c3 -5 22 -15 43 -21 35 -12 151 -71 272 -139 30 -17 58
-31 63 -31 15 0 6 17 -15 28 -13 6 -48 26 -78 43 -86 50 -181 95 -233 113 -55
19 -60 19 -52 7z"/>
<path d="M3128 1435 c-3 -3 -35 -6 -71 -7 -58 -1 -66 -3 -70 -22 -9 -37 -6
-875 2 -881 21 -13 25 637 5 795 -3 25 -2 56 3 69 9 23 12 24 169 28 103 3
201 -1 279 -10 66 -8 122 -13 124 -11 23 22 -147 44 -340 44 -53 0 -98 -2
-101 -5z"/>
<path d="M3593 1325 c1 -49 -3 -225 -7 -390 -8 -256 -4 -426 9 -413 8 8 13
826 6 858 -7 26 -8 12 -8 -55z"/>
<path d="M6714 1156 c-11 -29 130 -273 164 -284 29 -9 8 50 -52 147 -35 56
-67 114 -70 127 -7 26 -33 32 -42 10z"/>
<path d="M8702 976 c-2 -52 0 -57 14 -46 12 11 35 11 123 1 59 -7 200 -14 312
-14 l205 -2 -7 -40 c-11 -55 -11 -195 0 -195 12 0 21 231 9 253 -8 15 -17 17
-50 12 -23 -4 -166 -4 -319 0 l-278 7 -4 42 c-3 33 -4 30 -5 -18z"/>
<path d="M2055 795 c-11 -17 -32 -46 -49 -65 -31 -37 -35 -38 -201 -59 -44 -6
-116 -17 -160 -26 -44 -9 -112 -20 -152 -26 -39 -5 -113 -20 -163 -33 l-91
-23 -35 39 c-19 22 -40 50 -46 64 -6 13 -17 24 -25 24 -17 0 -17 -4 7 -51 40
-78 120 -148 120 -105 0 18 6 20 155 46 66 12 181 32 255 45 74 14 172 27 216
29 45 2 87 6 93 10 21 13 103 136 99 148 -3 7 -13 0 -23 -17z"/>
<path d="M9307 589 c-52 -65 -65 -89 -48 -89 11 0 105 139 99 145 -2 2 -25
-23 -51 -56z"/>
<path d="M8450 534 c0 -5 16 -10 36 -12 19 -1 83 -7 142 -13 189 -19 479 -22
547 -6 58 13 49 14 -230 20 -159 4 -336 10 -392 13 -59 4 -103 3 -103 -2z"/>
<path d="M2800 480 c-202 -8 -190 -7 -190 -18 0 -10 365 -7 380 3 12 7 14 26
3 23 -5 -1 -91 -5 -193 -8z"/>
<path d="M3596 481 c-3 -4 41 -11 97 -15 56 -3 145 -9 198 -12 65 -5 103 -3
118 5 29 16 18 31 -17 22 -15 -4 -74 -4 -132 0 -142 11 -258 11 -264 0z"/>
</g>
</svg>
