<?xml version="1.0" standalone="no"?>
<!DOCTYPE svg PUBLIC "-//W3C//DTD SVG 20010904//EN"
 "http://www.w3.org/TR/2001/REC-SVG-20010904/DTD/svg10.dtd">
<svg version="1.0" xmlns="http://www.w3.org/2000/svg"
 width="512.000000pt" height="512.000000pt" viewBox="0 0 512.000000 512.000000"
 preserveAspectRatio="xMidYMid meet">
<metadata>
Created by potrace 1.11, written by Peter Selinger 2001-2013
</metadata>
<g transform="translate(0.000000,512.000000) scale(0.100000,-0.100000)"
fill="#000000" stroke="none">
<path d="M1420 4324 c-52 -10 -127 -37 -170 -62 -43 -25 -50 -25 -190 -23
-218 4 -336 -31 -446 -130 -116 -105 -243 -166 -452 -219 -112 -29 -146 -46
-157 -79 -3 -10 11 -95 30 -191 40 -197 48 -214 154 -319 52 -52 97 -83 211
-144 80 -43 177 -89 215 -102 39 -13 73 -30 77 -37 4 -7 22 -64 42 -127 l34
-114 -54 6 c-29 3 -84 18 -121 33 -132 52 -245 29 -287 -60 -45 -95 -45 -267
0 -366 53 -118 131 -162 294 -165 58 -1 159 -12 225 -23 66 -12 148 -24 181
-28 l61 -6 60 -87 c53 -76 61 -96 77 -175 26 -131 82 -294 140 -411 l52 -102
-136 -6 c-108 -4 -151 -10 -215 -31 -174 -56 -273 -165 -304 -332 -16 -86 -14
-103 18 -135 l29 -29 1267 0 1267 0 29 29 c16 16 29 35 29 43 0 7 -16 100 -35
207 -19 107 -35 200 -35 208 0 7 46 -25 103 -73 482 -406 1009 -563 1497 -443
48 12 111 33 141 48 91 44 90 75 -11 287 -78 161 -159 275 -299 415 -137 136
-254 221 -419 304 -175 87 -406 158 -609 185 -51 7 -93 17 -93 22 0 5 11 30
24 56 137 270 165 635 71 913 -65 189 -218 325 -545 483 -295 142 -746 288
-1090 352 -215 40 -260 52 -346 95 -118 58 -124 65 -124 152 -1 85 -13 144
-34 165 -16 16 -107 25 -156 16z"/>
</g>
</svg>
